Coordinates
version=1
nRows=8
nColumns=63
inDegrees=yes

Units are S.I. units (second, meters, Newtons, ...)
If the header above contains a line with 'inDegrees', this indicates whether rotational values are in degrees (yes) or radians (no).

endheader
time	pelvis_tilt	pelvis_list	pelvis_rotation	pelvis_tx	pelvis_ty	pelvis_tz	hip_flexion_r	hip_adduction_r	hip_rotation_r	knee_angle_r	knee_angle_r_beta	ankle_angle_r	subtalar_angle_r	mtp_angle_r	hip_flexion_l	hip_adduction_l	hip_rotation_l	knee_angle_l	knee_angle_l_beta	ankle_angle_l	subtalar_angle_l	mtp_angle_l	L5_S1_Flex_Ext	L5_S1_Lat_Bending	L5_S1_axial_rotation	L4_L5_Flex_Ext	L4_L5_Lat_Bending	L4_L5_axial_rotation	L3_L4_Flex_Ext	L3_L4_Lat_Bending	L3_L4_axial_rotation	L2_L3_Flex_Ext	L2_L3_Lat_Bending	L2_L3_axial_rotation	L1_L2_Flex_Ext	L1_L2_Lat_Bending	L1_L2_axial_rotation	L1_T12_Flex_Ext	L1_T12_Lat_Bending	L1_T12_axial_rotation	Abs_r3	Abs_r2	Abs_r1	Abs_t1	Abs_t2	neck_flexion	neck_bending	neck_rotation	arm_flex_r	arm_add_r	arm_rot_r	elbow_flex_r	pro_sup_r	wrist_flex_r	wrist_dev_r	arm_flex_l	arm_add_l	arm_rot_l	elbow_flex_l	pro_sup_l	wrist_flex_l	wrist_dev_l
0.644068	10.599826	5.569036	92.831429	0.084656	0.810707	0.818186	1.262356	5.428857	-5.711461	11.711292	0.204401	26.307578	10.687871	0.000000	-1.834092	-5.038121	19.042400	6.400823	0.111715	22.614731	-14.636143	0.000000	-0.174873	1.649369	0.664367	-0.324757	2.193661	0.705890	-0.287299	4.010276	0.705890	-0.199863	4.010276	0.581321	-0.162387	3.363393	0.539798	-0.099923	2.554873	0.498276	-1.249102	18.657992	3.695012	0.000000	0.000000	7.070560	-19.096350	-26.056411	1.827795	-28.626707	45.510956	22.856802	75.445609	-10.696367	3.769427	41.272817	-9.186580	1.405860	147.459675	87.237938	-20.449045	8.225178
0.661017	10.690823	5.609673	92.966023	0.084082	0.810712	0.818357	1.270804	5.521894	-5.735390	11.729795	0.204724	26.087230	10.486305	0.000000	-1.740118	-5.112677	18.785251	6.517503	0.113752	22.904300	-14.495748	0.000000	-0.184790	1.681573	0.585374	-0.343174	2.236492	0.621960	-0.303592	4.088576	0.621960	-0.211197	4.088576	0.512202	-0.171596	3.429063	0.475617	-0.105589	2.604756	0.439031	-1.319940	19.022285	3.255676	0.000000	0.000000	7.295602	-20.363298	-25.222616	1.261617	-28.795159	44.764867	22.500876	73.127763	-10.654442	3.188002	41.441005	-8.854282	0.991875	147.304855	86.929686	-19.925263	10.423020
0.677966	10.757938	5.600113	93.029877	0.083751	0.810738	0.818524	1.304594	5.607467	-5.560159	11.689855	0.204026	25.793995	10.163901	0.000000	-1.603836	-5.167371	18.484913	6.648304	0.116035	23.109892	-14.332748	0.000000	-0.192647	1.707938	0.525712	-0.357765	2.271557	0.558569	-0.316500	4.152680	0.558569	-0.220177	4.152680	0.459998	-0.178892	3.482827	0.427141	-0.110079	2.645595	0.394284	-1.376060	19.320533	2.923851	0.000000	0.000000	7.506323	-21.782651	-24.428603	0.746280	-28.923444	44.124306	22.204675	70.620210	-10.651363	2.433075	41.494260	-8.563492	0.757106	147.106933	86.687800	-19.579221	12.140954
0.694915	10.784472	5.531879	93.026867	0.083660	0.810752	0.818703	1.383351	5.665022	-5.202397	11.614847	0.202717	25.456771	9.729484	0.000000	-1.413149	-5.184151	18.115993	6.803927	0.118751	23.236216	-14.069518	0.000000	-0.199028	1.726568	0.481655	-0.369615	2.296336	0.511759	-0.326983	4.197978	0.511759	-0.227469	4.197978	0.421448	-0.184818	3.520818	0.391345	-0.113725	2.674454	0.361242	-1.421638	19.531283	2.678823	0.000000	0.000000	7.724196	-23.364032	-23.665665	0.290796	-28.991720	43.536079	21.974056	68.084812	-10.706162	1.530701	41.464139	-8.313316	0.590942	146.920446	86.521116	-19.296587	13.558405
0.711864	10.773874	5.399753	92.934035	0.083826	0.810735	0.818918	1.518909	5.696196	-4.674958	11.516686	0.201004	25.093193	9.222492	0.000000	-1.170407	-5.165396	17.689172	6.978215	0.121793	23.273213	-13.740086	0.000000	-0.203866	1.737462	0.460664	-0.378599	2.310824	0.489456	-0.334931	4.224464	0.489456	-0.232998	4.224464	0.403081	-0.189310	3.543031	0.374290	-0.116489	2.691328	0.345498	-1.456193	19.654512	2.562076	0.000000	0.000000	7.891581	-25.090535	-23.046718	-0.106396	-29.014677	43.010623	21.822844	65.713163	-10.800783	0.517804	41.396115	-8.077902	0.490865	146.713393	86.425348	-19.031485	14.535178
0.728814	10.724055	5.203735	92.758874	0.084228	0.810665	0.819208	1.722709	5.694572	-4.028942	11.416570	0.199257	24.732109	8.691532	0.000000	-0.873925	-5.108048	17.223889	7.169093	0.125124	23.229910	-13.362961	0.000000	-0.207199	1.740041	0.462374	-0.384790	2.314254	0.491273	-0.340408	4.230735	0.491273	-0.236808	4.230735	0.404578	-0.192405	3.548291	0.375679	-0.118394	2.695323	0.346781	-1.480005	19.683689	2.571588	0.000000	0.000000	7.962590	-26.914578	-22.633918	-0.423088	-28.989540	42.617000	21.730886	63.779606	-10.969961	-0.537517	41.323063	-7.857670	0.442957	146.486426	86.399958	-18.731854	15.083550
0.745763	10.671367	4.951195	92.502221	0.084738	0.810489	0.819626	2.001010	5.685964	-3.343002	11.339829	0.197917	24.407137	8.214350	0.000000	-0.528958	-5.042252	16.746211	7.374046	0.128701	23.142792	-12.992431	0.000000	-0.210730	1.740393	0.485438	-0.391347	2.314723	0.515778	-0.346209	4.231591	0.515778	-0.240844	4.231591	0.424759	-0.195684	3.549009	0.394419	-0.120411	2.695869	0.364079	-1.505226	19.687673	2.699863	0.000000	0.000000	7.970567	-28.800531	-22.401454	-0.976661	-29.201526	37.885034	22.596151	66.103622	-11.537687	-1.094041	41.259963	-7.614710	0.328680	146.267071	86.455588	-18.140151	15.380632
0.762712	10.558437	4.641198	92.156520	0.085543	0.810266	0.820131	2.352075	5.622936	-2.588049	11.283446	0.196933	24.138824	7.789239	0.000000	-0.152714	-4.920581	16.201548	7.553892	0.131840	22.993450	-12.626513	0.000000	-0.212018	1.728267	0.533712	-0.393739	2.298595	0.567069	-0.348325	4.202108	0.567069	-0.242315	4.202108	0.466998	-0.196880	3.524282	0.433641	-0.121147	2.677085	0.400284	-1.514424	19.550501	2.968349	0.000000	0.000000	7.803769	-30.612316	-22.447666	-1.256870	-29.188812	35.946025	22.894240	66.911885	-11.923357	-1.846718	41.247936	-7.419190	0.311517	145.978301	86.563239	-17.560385	15.016756
